<svg width="20" height="20" viewBox="0 0 20 20" fill="none" xmlns="http://www.w3.org/2000/svg">
<path d="M12.0243 15.6834C11.866 15.6834 11.7076 15.6251 11.5826 15.5001C11.341 15.2584 11.341 14.8584 11.5826 14.6167L16.1993 10.0001L11.5826 5.38343C11.341 5.14176 11.341 4.74176 11.5826 4.5001C11.8243 4.25843 12.2243 4.25843 12.466 4.5001L17.5243 9.55841C17.766 9.80008 17.766 10.2001 17.5243 10.4417L12.466 15.5001C12.341 15.6251 12.1826 15.6834 12.0243 15.6834Z" fill="#292D32"/>
<path d="M16.9416 10.625H2.91663C2.57496 10.625 2.29163 10.3417 2.29163 10C2.29163 9.65833 2.57496 9.375 2.91663 9.375H16.9416C17.2833 9.375 17.5666 9.65833 17.5666 10C17.5666 10.3417 17.2833 10.625 16.9416 10.625Z" fill="#292D32"/>
</svg>
