<svg width="25" height="25" viewBox="0 0 25 25" fill="none" xmlns="http://www.w3.org/2000/svg">
<path d="M1.5625 4.6875C1.5625 4.2731 1.72712 3.87567 2.02015 3.58265C2.31317 3.28962 2.7106 3.125 3.125 3.125H21.875C22.2894 3.125 22.6868 3.28962 22.9799 3.58265C23.2729 3.87567 23.4375 4.2731 23.4375 4.6875H1.5625ZM12.5 17.1875C13.3288 17.1875 14.1237 16.8583 14.7097 16.2722C15.2958 15.6862 15.625 14.8913 15.625 14.0625C15.625 13.2337 15.2958 12.4388 14.7097 11.8528C14.1237 11.2667 13.3288 10.9375 12.5 10.9375C11.6712 10.9375 10.8763 11.2667 10.2903 11.8528C9.70424 12.4388 9.375 13.2337 9.375 14.0625C9.375 14.8913 9.70424 15.6862 10.2903 16.2722C10.8763 16.8583 11.6712 17.1875 12.5 17.1875Z" fill="white"/>
<path d="M0 7.8125C0 7.3981 0.16462 7.00067 0.457646 6.70765C0.750671 6.41462 1.1481 6.25 1.5625 6.25H23.4375C23.8519 6.25 24.2493 6.41462 24.5424 6.70765C24.8354 7.00067 25 7.3981 25 7.8125V20.3125C25 20.7269 24.8354 21.1243 24.5424 21.4174C24.2493 21.7104 23.8519 21.875 23.4375 21.875H1.5625C1.1481 21.875 0.750671 21.7104 0.457646 21.4174C0.16462 21.1243 0 20.7269 0 20.3125V7.8125ZM4.6875 7.8125C4.6875 8.6413 4.35826 9.43616 3.77221 10.0222C3.18616 10.6083 2.3913 10.9375 1.5625 10.9375V17.1875C2.3913 17.1875 3.18616 17.5167 3.77221 18.1028C4.35826 18.6888 4.6875 19.4837 4.6875 20.3125H20.3125C20.3125 19.4837 20.6417 18.6888 21.2278 18.1028C21.8138 17.5167 22.6087 17.1875 23.4375 17.1875V10.9375C22.6087 10.9375 21.8138 10.6083 21.2278 10.0222C20.6417 9.43616 20.3125 8.6413 20.3125 7.8125H4.6875Z" fill="white"/>
</svg>
