<svg width="24" height="24" viewBox="0 0 24 24" fill="none" xmlns="http://www.w3.org/2000/svg">
<path d="M8.5 21C8.08333 21 7.72917 20.8542 7.4375 20.5625C7.14583 20.2708 7 19.9167 7 19.5V8.5C7 8.08333 7.14583 7.72917 7.4375 7.4375C7.72917 7.14583 8.08333 7 8.5 7H19.5C19.9167 7 20.2708 7.14583 20.5625 7.4375C20.8542 7.72917 21 8.08333 21 8.5V19.5C21 19.9167 20.8542 20.2708 20.5625 20.5625C20.2708 20.8542 19.9167 21 19.5 21H8.5ZM8.5 11.15H19.5V8.5H8.5V11.15ZM12.65 15.35H15.35V12.65H12.65V15.35ZM12.65 19.5H15.35V16.85H12.65V19.5ZM8.5 15.35H11.15V12.65H8.5V15.35ZM16.85 15.35H19.5V12.65H16.85V15.35ZM8.5 19.5H11.15V16.85H8.5V19.5ZM16.85 19.5H19.5V16.85H16.85V19.5ZM4.5 17C4.08333 17 3.72917 16.8542 3.4375 16.5625C3.14583 16.2708 3 15.9167 3 15.5V4.5C3 4.08333 3.14583 3.72917 3.4375 3.4375C3.72917 3.14583 4.08333 3 4.5 3H15.5C15.9167 3 16.2708 3.14583 16.5625 3.4375C16.8542 3.72917 17 4.08333 17 4.5V6.25H15.5V4.5H4.5V15.5H6.25V17H4.5Z" fill="#1F2937"/>
</svg>
