<svg width="25" height="25" viewBox="0 0 25 25" fill="none" xmlns="http://www.w3.org/2000/svg">
<path d="M12.5003 22.9166C11.9477 22.9139 11.4183 22.6939 11.0265 22.3041C10.6347 21.9143 10.412 21.386 10.4066 20.8333H14.5732C14.5754 21.1118 14.5223 21.388 14.417 21.6458C14.2823 21.9549 14.076 22.2276 13.8152 22.4413C13.5544 22.655 13.2465 22.8037 12.917 22.875H12.868C12.747 22.9002 12.6239 22.9141 12.5003 22.9166ZM20.8337 19.7916H4.16699V17.7083L6.25033 16.6666V10.9375C6.19545 9.46781 6.52734 8.00949 7.21283 6.70831C7.55016 6.11172 8.01015 5.59343 8.56246 5.18763C9.11477 4.78184 9.74685 4.49776 10.417 4.35415V2.08331H14.5837V4.35415C17.2701 4.99373 18.7503 7.33123 18.7503 10.9375V16.6666L20.8337 17.7083V19.7916Z" fill="#1F2937"/>
<circle cx="20" cy="8" r="5" fill="#EC1414"/>
</svg>
