<svg width="16" height="16" viewBox="0 0 16 16" fill="none" xmlns="http://www.w3.org/2000/svg">
<path d="M8.00004 14.6666C11.614 14.6666 14.6667 11.614 14.6667 7.99998C14.6667 4.38598 11.614 1.33331 8.00004 1.33331C4.38604 1.33331 1.33337 4.38598 1.33337 7.99998C1.33337 11.614 4.38604 14.6666 8.00004 14.6666ZM8.00004 2.66665C10.8914 2.66665 13.3334 5.10865 13.3334 7.99998C13.3334 10.8913 10.8914 13.3333 8.00004 13.3333C5.10871 13.3333 2.66671 10.8913 2.66671 7.99998C2.66671 5.10865 5.10871 2.66665 8.00004 2.66665Z" fill="#1F2937"/>
<path d="M7.99996 11.3334C8.60063 11.3334 9.72063 11.2214 10.4713 10.472L9.52863 9.52802C9.23329 9.82335 8.66129 10 7.99996 10C6.91596 10 5.99996 9.08402 5.99996 8.00002C5.99996 6.91602 6.91596 6.00002 7.99996 6.00002C8.66196 6.00002 9.23396 6.17669 9.52863 6.47135L10.4713 5.52869C9.72129 4.77869 8.60063 4.66669 7.99996 4.66669C6.16196 4.66669 4.66663 6.16202 4.66663 8.00002C4.66663 9.83802 6.16196 11.3334 7.99996 11.3334Z" fill="#1F2937"/>
</svg>
