<svg width="13" height="17" viewBox="0 0 13 17" fill="none" xmlns="http://www.w3.org/2000/svg">
<path d="M4.956 14.754C5.021 15.69 5.908 16.413 6.864 16.174L7.125 16.109C7.36444 16.0531 7.58455 15.9341 7.7625 15.7644C7.94045 15.5947 8.06975 15.3805 8.137 15.144C8.357 14.328 8.67 12.632 8.199 10.634C8.335 10.654 8.484 10.671 8.642 10.685C9.355 10.75 10.311 10.756 11.158 10.474C11.676 10.301 12.152 9.794 12.358 9.202C12.4611 8.91543 12.4937 8.60822 12.453 8.30639C12.4123 8.00456 12.2994 7.71698 12.124 7.468C12.182 7.35 12.227 7.226 12.262 7.106C12.339 6.836 12.375 6.538 12.375 6.25C12.375 5.96 12.339 5.664 12.262 5.393C12.2228 5.25349 12.1691 5.11843 12.102 4.99C12.271 4.603 12.209 4.17 12.099 3.841C11.9863 3.51648 11.8215 3.2125 11.611 2.941C11.665 2.788 11.687 2.628 11.687 2.476C11.6827 2.15527 11.5956 1.8411 11.434 1.564C11.1 0.977 10.437 0.5 9.5 0.5H6C5.395 0.5 4.93 0.58 4.534 0.717C4.19346 0.841685 3.86807 1.00438 3.564 1.202L3.516 1.231C3.012 1.539 2.517 1.841 1.448 1.954C0.682 2.035 0 2.654 0 3.499V7.499C0 8.35 0.685 8.932 1.357 9.115C2.206 9.347 2.931 9.902 3.489 10.525C4.049 11.151 4.403 11.805 4.528 12.163C4.727 12.738 4.884 13.703 4.956 14.754Z" fill="#1F2937"/>
</svg>
