<svg width="13" height="17" viewBox="0 0 13 17" fill="none" xmlns="http://www.w3.org/2000/svg">
<path d="M4.956 2.24504C5.021 1.31004 5.908 0.58704 6.864 0.82504L7.125 0.89104C7.588 1.00704 7.999 1.34704 8.137 1.85604C8.357 2.67204 8.67 4.36704 8.199 6.36604C8.34626 6.3457 8.49397 6.32869 8.642 6.31504C9.355 6.25004 10.311 6.24304 11.158 6.52504C11.676 6.69804 12.152 7.20604 12.358 7.79804C12.542 8.33004 12.518 8.96004 12.124 9.53104C12.182 9.65004 12.227 9.77304 12.262 9.89404C12.339 10.164 12.375 10.461 12.375 10.75C12.375 11.039 12.339 11.336 12.262 11.606C12.223 11.741 12.172 11.879 12.102 12.01C12.271 12.397 12.209 12.829 12.099 13.158C11.9864 13.4829 11.8216 13.7872 11.611 14.059C11.665 14.211 11.687 14.371 11.687 14.524C11.687 14.829 11.598 15.149 11.434 15.436C11.1 16.022 10.437 16.5 9.5 16.5H6C5.395 16.5 4.93 16.419 4.534 16.282C4.1935 16.1577 3.8681 15.9953 3.564 15.798L3.516 15.768C3.012 15.461 2.517 15.159 1.448 15.046C0.682 14.964 0 14.346 0 13.5V9.50004C0 8.65004 0.685 8.06804 1.357 7.88504C2.206 7.65304 2.931 7.09804 3.489 6.47504C4.049 5.84804 4.403 5.19504 4.528 4.83604C4.727 4.26104 4.884 3.29704 4.956 2.24604V2.24504Z" fill="#1F2937"/>
</svg>
