<svg width="17" height="16" viewBox="0 0 17 16" fill="none" xmlns="http://www.w3.org/2000/svg">
<path d="M16.47 7.5C16.47 11.366 12.888 14.5 8.46997 14.5C7.67762 14.5011 6.88856 14.3982 6.12297 14.194C5.53897 14.49 4.19797 15.058 1.94197 15.428C1.74197 15.46 1.58997 15.252 1.66897 15.066C2.02297 14.23 2.34297 13.116 2.43897 12.1C1.21397 10.87 0.469971 9.26 0.469971 7.5C0.469971 3.634 4.05197 0.5 8.46997 0.5C12.888 0.5 16.47 3.634 16.47 7.5ZM4.96997 4.5C4.83736 4.5 4.71019 4.55268 4.61642 4.64645C4.52265 4.74021 4.46997 4.86739 4.46997 5C4.46997 5.13261 4.52265 5.25979 4.61642 5.35355C4.71019 5.44732 4.83736 5.5 4.96997 5.5H11.97C12.1026 5.5 12.2298 5.44732 12.3235 5.35355C12.4173 5.25979 12.47 5.13261 12.47 5C12.47 4.86739 12.4173 4.74021 12.3235 4.64645C12.2298 4.55268 12.1026 4.5 11.97 4.5H4.96997ZM4.96997 7C4.83736 7 4.71019 7.05268 4.61642 7.14645C4.52265 7.24021 4.46997 7.36739 4.46997 7.5C4.46997 7.63261 4.52265 7.75979 4.61642 7.85355C4.71019 7.94732 4.83736 8 4.96997 8H11.97C12.1026 8 12.2298 7.94732 12.3235 7.85355C12.4173 7.75979 12.47 7.63261 12.47 7.5C12.47 7.36739 12.4173 7.24021 12.3235 7.14645C12.2298 7.05268 12.1026 7 11.97 7H4.96997ZM4.96997 9.5C4.83736 9.5 4.71019 9.55268 4.61642 9.64645C4.52265 9.74021 4.46997 9.86739 4.46997 10C4.46997 10.1326 4.52265 10.2598 4.61642 10.3536C4.71019 10.4473 4.83736 10.5 4.96997 10.5H8.96997C9.10258 10.5 9.22976 10.4473 9.32352 10.3536C9.41729 10.2598 9.46997 10.1326 9.46997 10C9.46997 9.86739 9.41729 9.74021 9.32352 9.64645C9.22976 9.55268 9.10258 9.5 8.96997 9.5H4.96997Z" fill="#1F2937"/>
</svg>
