<svg width="81" height="81" viewBox="0 0 81 81" fill="none" xmlns="http://www.w3.org/2000/svg">
<path d="M67.5 6.75H13.5C9.77737 6.75 6.75 9.77738 6.75 13.5V54C6.75 57.7226 9.77737 60.75 13.5 60.75H23.625V73.4636L44.8099 60.75H67.5C71.2226 60.75 74.25 57.7226 74.25 54V13.5C74.25 9.77738 71.2226 6.75 67.5 6.75ZM67.5 54H42.9401L30.375 61.5364V54H13.5V13.5H67.5V54Z" fill="#595D64"/>
<path d="M32.7611 46.2611L40.5 38.5223L48.2389 46.2611L53.0111 41.4889L45.2723 33.75L53.0111 26.0111L48.2389 21.2389L40.5 28.9778L32.7611 21.2389L27.9889 26.0111L35.7278 33.75L27.9889 41.4889L32.7611 46.2611Z" fill="#595D64"/>
</svg>
