<svg width="15" height="15" viewBox="0 0 15 15" fill="none" xmlns="http://www.w3.org/2000/svg">
<path d="M11.407 8.8875C11.2882 8.8875 11.1632 8.8375 11.0757 8.75L7.532 5.20626C7.37575 5.05001 7.35075 4.81251 7.4695 4.62501L8.57575 2.87497C8.87575 2.39372 9.3445 2.1 9.882 2.0375C10.4757 1.96875 11.107 2.2125 11.5945 2.7L13.582 4.68749C14.0507 5.15624 14.282 5.78124 14.2132 6.40625C14.1507 6.95 13.8632 7.41869 13.4132 7.70619L11.6632 8.8125C11.582 8.8625 11.4945 8.8875 11.407 8.8875ZM8.46325 4.8125L11.4757 7.825L12.907 6.91875C13.1195 6.7875 13.2507 6.56875 13.2757 6.30625C13.3132 5.97501 13.1757 5.61875 12.9132 5.35625L10.9257 3.36875C10.6382 3.08125 10.2945 2.9375 9.982 2.975C9.732 3 9.5195 3.14372 9.3695 3.38122L8.46325 4.8125Z" fill="#1F2937"/>
<path d="M4.14319 14.2187C3.55569 14.2187 3.03694 14.0125 2.64944 13.625C2.19944 13.175 1.99944 12.5437 2.08069 11.8437L2.69319 6.66874C2.72444 6.41249 2.95569 6.23126 3.21194 6.25624C3.46819 6.28749 3.65569 6.51874 3.62444 6.77499L3.01194 11.95C2.96194 12.3562 3.06819 12.7125 3.31194 12.9562C3.55569 13.2 3.91818 13.3125 4.33068 13.2625L9.78069 12.6187C10.9432 12.4812 11.1994 12.1687 11.0869 11.0312L10.9369 8.43749C10.9244 8.18124 11.1182 7.95624 11.3807 7.94374C11.6369 7.93124 11.8619 8.12505 11.8744 8.38755L12.0244 10.9625C12.1869 12.575 11.5494 13.3562 9.89319 13.5562L4.44319 14.2C4.34319 14.2125 4.24319 14.2187 4.14319 14.2187Z" fill="#1F2937"/>
<path d="M7.86255 5.35014C7.85005 5.35014 7.8438 5.35014 7.8313 5.35014L6.73755 5.2814C6.4813 5.26265 6.2813 5.04391 6.30005 4.78141C6.3188 4.51891 6.53755 4.32515 6.80005 4.3439L7.8938 4.41264C8.15005 4.43139 8.35005 4.65014 8.3313 4.91264C8.31255 5.15639 8.1063 5.35014 7.86255 5.35014Z" fill="#1F2937"/>
<path d="M3.3002 13.4563C3.18145 13.4563 3.0627 13.4126 2.96895 13.3189C2.7877 13.1376 2.7877 12.8376 2.96895 12.6563L4.95644 10.6688C5.1377 10.4875 5.4377 10.4875 5.61895 10.6688C5.8002 10.85 5.8002 11.1501 5.61895 11.3313L3.63145 13.3189C3.5377 13.4126 3.41895 13.4563 3.3002 13.4563Z" fill="#1F2937"/>
<path d="M4.0625 7.34375C3.69375 7.34375 3.3375 7.28125 3.00625 7.16875C2.28125 6.925 1.65624 6.425 1.25624 5.75626C0.943744 5.24376 0.78125 4.65625 0.78125 4.0625C0.78125 3.05 1.23125 2.11876 2.01875 1.50001C2.59375 1.03751 3.31875 0.78125 4.0625 0.78125C5.875 0.78125 7.34375 2.25625 7.34375 4.0625C7.34375 4.35625 7.3 4.66248 7.21875 4.94373C7.1375 5.23123 7.025 5.49376 6.86875 5.75626C6.6875 6.05626 6.46875 6.3125 6.2125 6.53125C5.625 7.05625 4.8625 7.34375 4.0625 7.34375ZM4.0625 1.71875C3.53125 1.71875 3.0125 1.90001 2.6 2.23126C2.0375 2.67501 1.71875 3.3375 1.71875 4.0625C1.71875 4.48125 1.83749 4.89999 2.05624 5.26874C2.34374 5.74374 2.78749 6.10624 3.30624 6.275C4.06249 6.54375 4.96876 6.375 5.60001 5.81875C5.78126 5.6625 5.93751 5.47499 6.06876 5.26874C6.18126 5.08124 6.2625 4.89375 6.31875 4.6875C6.375 4.48125 6.40625 4.26875 6.40625 4.0625C6.40625 2.76875 5.35625 1.71875 4.0625 1.71875Z" fill="#1F2937"/>
<path d="M4.07471 5.58144C3.81846 5.58144 3.60596 5.36894 3.60596 5.11269V3.0127C3.60596 2.75645 3.81846 2.54395 4.07471 2.54395C4.33096 2.54395 4.54346 2.75645 4.54346 3.0127V5.11269C4.54346 5.37519 4.33096 5.58144 4.07471 5.58144Z" fill="#1F2937"/>
<path d="M5.10049 4.53125H3.00049C2.74424 4.53125 2.53174 4.31875 2.53174 4.0625C2.53174 3.80625 2.74424 3.59375 3.00049 3.59375H5.10049C5.35674 3.59375 5.56924 3.80625 5.56924 4.0625C5.56924 4.31875 5.36299 4.53125 5.10049 4.53125Z" fill="#1F2937"/>
</svg>
