<svg width="16" height="17" viewBox="0 0 16 17" fill="none" xmlns="http://www.w3.org/2000/svg">
<path d="M11 2.99995C10.9999 2.41338 11.2061 1.84546 11.5825 1.39556C11.9588 0.945654 12.4814 0.642411 13.0588 0.538885C13.6361 0.435359 14.2315 0.538141 14.7408 0.82925C15.25 1.12036 15.6406 1.58126 15.8444 2.13131C16.0481 2.68135 16.0519 3.28553 15.8552 3.83812C15.6585 4.39071 15.2737 4.85654 14.7682 5.15409C14.2627 5.45165 13.6687 5.56198 13.0901 5.4658C12.5115 5.36962 11.9851 5.07304 11.603 4.62795L4.88502 7.74795C5.03946 8.23739 5.03946 8.76251 4.88502 9.25195L11.603 12.3719C12.0069 11.9023 12.5707 11.5993 13.1852 11.5216C13.7997 11.4439 14.4212 11.5972 14.9292 11.9516C15.4372 12.3061 15.7955 12.8365 15.9347 13.4401C16.0739 14.0436 15.9841 14.6774 15.6826 15.2185C15.3812 15.7596 14.8896 16.1696 14.3031 16.3689C13.7166 16.5682 13.077 16.5427 12.5083 16.2974C11.9396 16.052 11.4822 15.6042 11.2247 15.0408C10.9673 14.4774 10.9282 13.8385 11.115 13.2479L4.39702 10.1279C4.06446 10.5155 3.62117 10.7919 3.1268 10.92C2.63243 11.0481 2.11069 11.0217 1.63176 10.8444C1.15283 10.6671 0.739697 10.3474 0.447928 9.92824C0.15616 9.50909 -0.000244141 9.01064 -0.000244141 8.49995C-0.000244141 7.98925 0.15616 7.49081 0.447928 7.07166C0.739697 6.65252 1.15283 6.33278 1.63176 6.15547C2.11069 5.97816 2.63243 5.95177 3.1268 6.07986C3.62117 6.20795 4.06446 6.48438 4.39702 6.87195L11.115 3.75195C11.0386 3.50862 10.9998 3.25501 11 2.99995Z" fill="#1F2937"/>
</svg>
