<svg width="19" height="18" viewBox="0 0 19 18" fill="none" xmlns="http://www.w3.org/2000/svg">
<path d="M6 18C5.58333 18 5.22917 17.8542 4.9375 17.5625C4.64583 17.2708 4.5 16.9167 4.5 16.5V5.5C4.5 5.08333 4.64583 4.72917 4.9375 4.4375C5.22917 4.14583 5.58333 4 6 4H17C17.4167 4 17.7708 4.14583 18.0625 4.4375C18.3542 4.72917 18.5 5.08333 18.5 5.5V16.5C18.5 16.9167 18.3542 17.2708 18.0625 17.5625C17.7708 17.8542 17.4167 18 17 18H6ZM6 8.15H17V5.5H6V8.15ZM10.15 12.35H12.85V9.65H10.15V12.35ZM10.15 16.5H12.85V13.85H10.15V16.5ZM6 12.35H8.65V9.65H6V12.35ZM14.35 12.35H17V9.65H14.35V12.35ZM6 16.5H8.65V13.85H6V16.5ZM14.35 16.5H17V13.85H14.35V16.5ZM2 14C1.58333 14 1.22917 13.8542 0.9375 13.5625C0.645833 13.2708 0.5 12.9167 0.5 12.5V1.5C0.5 1.08333 0.645833 0.729167 0.9375 0.4375C1.22917 0.145833 1.58333 0 2 0H13C13.4167 0 13.7708 0.145833 14.0625 0.4375C14.3542 0.729167 14.5 1.08333 14.5 1.5V3.25H13V1.5H2V12.5H3.75V14H2Z" fill="#595D64"/>
</svg>
